<svg width="58" height="74" viewBox="0 0 58 74" fill="none" xmlns="http://www.w3.org/2000/svg">
<path d="M18.551 30.5533C19.6848 32.2201 19.7176 34.4941 18.309 35.9362V35.9362C16.842 37.438 14.4024 37.4491 13.1614 35.7557C12.1377 34.3586 11.2469 32.8645 10.5012 31.2938C9.58746 29.3691 10.8049 27.2032 12.8677 26.6698V26.6698C14.7425 26.185 16.6384 27.2417 17.5662 28.9414C17.8785 29.5134 18.2077 30.0486 18.551 30.5533ZM17.6583 14C20.5085 14 21.9531 10.5695 19.9615 8.53055L13.5134 1.92938C11.9441 0.322773 9.35993 0.32277 7.79059 1.92938L1.47802 8.39188C-0.564109 10.4825 0.917125 14 3.83963 14V14C5.63188 14 7.08562 15.4311 7.20395 17.2195C7.22452 17.5304 7.24706 17.8373 7.27161 18.1401C7.44678 20.3009 9.55955 21.6717 11.6584 21.129L11.9986 21.041C13.6305 20.6191 14.6749 19.0383 14.5437 17.3578C14.5413 17.3274 14.539 17.2969 14.5367 17.2663C14.3999 15.4738 15.8606 14 17.6583 14V14ZM54.1172 14C57.0312 14 58.5081 10.4927 56.4719 8.40814L50.1435 1.92938C48.5741 0.322773 45.99 0.32277 44.4206 1.92938L37.9728 8.53038C35.9811 10.5694 37.4257 14 40.276 14V14C42.0877 14 43.5555 15.501 43.4061 17.3065C42.4808 28.4823 38.5023 32.1719 34.2784 36.05C33.2854 36.9446 32.2817 37.8832 31.3139 38.9317C30.0907 40.2568 27.7944 40.1982 26.5496 38.8933V38.8933C25.5955 37.8931 24.0595 37.9991 23.0936 38.988L22.3108 39.7893C20.8578 41.2769 20.9805 43.6114 22.291 45.226C24.172 47.5435 25.304 50.2853 25.304 55.25V70.337C25.304 72.36 26.944 74 28.967 74V74C30.9901 74 32.63 72.36 32.63 70.337V55.25C32.63 47.675 35.2308 45.275 39.1868 41.6375C43.914 37.289 49.6663 31.9567 50.7518 17.2068C50.8829 15.4263 52.3319 14 54.1172 14V14Z" fill="white" fill-opacity="0.5"/>
</svg>
