<svg width="83" height="75" viewBox="0 0 83 75" fill="none" xmlns="http://www.w3.org/2000/svg">
<path d="M75.0523 0H31.056C28.9969 0 27.0221 0.817996 25.566 2.27404C24.11 3.73008 23.292 5.7049 23.292 7.76405V38.8203C23.292 40.8794 24.11 42.8542 25.566 44.3103C27.0221 45.7663 28.9969 46.5843 31.056 46.5843H66.1237L78.4944 56.1859C78.8622 56.4578 79.2954 56.6273 79.75 56.6773C80.2046 56.7274 80.6644 56.656 81.0824 56.4705C81.5228 56.2608 81.895 55.9308 82.156 55.5187C82.417 55.1066 82.5562 54.6291 82.5576 54.1413V7.76405C82.5587 5.74896 81.7763 3.81238 80.3758 2.36355C78.9753 0.914724 77.0663 0.0671693 75.0523 0Z" fill="white" fill-opacity="0.5"/>
<path d="M15.5281 38.8203V18.1161H7.76405C5.7049 18.1161 3.73008 18.9341 2.27404 20.3902C0.817996 21.8462 0 23.821 0 25.8802V72.4645C0.00385175 72.9451 0.141479 73.4152 0.397458 73.822C0.653438 74.2289 1.01765 74.5564 1.44929 74.7678C1.86513 74.9569 2.32362 75.0326 2.77817 74.9872C3.23273 74.9417 3.66715 74.7767 4.03731 74.509L17.3656 64.7004H52.1486C53.1294 64.7294 54.1058 64.5568 55.0172 64.1931C55.9287 63.8294 56.7557 63.2824 57.4472 62.5861C58.1386 61.8898 58.6798 61.059 59.0371 60.145C59.3944 59.2311 59.5603 58.2535 59.5244 57.2728V54.3484H31.0562C26.9379 54.3484 22.9883 52.7124 20.0762 49.8003C17.1641 46.8882 15.5281 42.9386 15.5281 38.8203Z" fill="white" fill-opacity="0.5"/>
</svg>
