<svg width="75" height="75" viewBox="0 0 75 75" fill="none" xmlns="http://www.w3.org/2000/svg">
<path d="M55.3571 28.5714C52.9891 28.5714 50.7181 27.6307 49.0437 25.9563C47.3693 24.2819 46.4286 22.0109 46.4286 19.6429C46.4286 17.2749 47.3693 15.0038 49.0437 13.3294C50.7181 11.655 52.9891 10.7143 55.3571 10.7143C57.7251 10.7143 59.9962 11.655 61.6706 13.3294C63.345 15.0038 64.2857 17.2749 64.2857 19.6429C64.2857 22.0109 63.345 24.2819 61.6706 25.9563C59.9962 27.6307 57.7251 28.5714 55.3571 28.5714ZM44.3929 25.5357L0 69.9643L5.03571 75L49.4643 30.6071C47.3214 29.4286 45.5714 27.6786 44.3929 25.5357ZM39.2857 14.2857L41.5357 9.39286L46.4286 7.14286L41.5357 4.89286L39.2857 0L37.0714 4.89286L32.1429 7.14286L37.0714 9.39286L39.2857 14.2857ZM67.8571 14.2857L70.1071 9.39286L75 7.14286L70.1071 4.89286L67.8571 0L65.6429 4.89286L60.7143 7.14286L65.6429 9.39286L67.8571 14.2857ZM67.8571 28.5714L65.6429 33.4643L60.7143 35.7143L65.6429 37.9643L67.8571 42.8571L70.1071 37.9643L75 35.7143L70.1071 33.4643L67.8571 28.5714Z" fill="white" fill-opacity="0.5"/>
</svg>
