<svg width="67" height="75" viewBox="0 0 67 75" fill="none" xmlns="http://www.w3.org/2000/svg">
<path d="M31.5182 0C31.5184 0 31.5186 0.000169082 31.5186 0.000377655V9.88022C31.5186 10.9965 32.4235 11.9014 33.5398 11.9014V11.9014C34.6561 11.9014 35.561 10.9965 35.561 9.88022V4.04281C35.561 1.81003 33.751 0 31.5182 0V0V0ZM16.1711 5.23262C15.5308 4.31802 14.2703 4.09568 13.3557 4.73602V4.73602C12.4411 5.37637 12.2189 6.6369 12.8593 7.55143L17.3654 13.9864C18.0057 14.9008 19.2661 15.1228 20.1804 14.4823V14.4823C21.0943 13.8421 21.3164 12.5822 20.6764 11.6681L16.1711 5.23262ZM52.0674 3.57656C52.0672 3.57656 52.067 3.57667 52.0669 3.57685L46.4027 11.6679C45.7626 12.5821 45.9848 13.8422 46.8989 14.4824V14.4824C47.8132 15.1229 49.0737 14.9008 49.7141 13.9863L53.6164 8.41353C54.5902 7.02288 54.2522 5.10612 52.8615 4.1324L52.0678 3.57668C52.0677 3.5766 52.0675 3.57656 52.0674 3.57656V3.57656ZM33.5389 15.1578C24.0826 15.1578 16.3384 20.6488 15.6787 27.6075C15.6183 28.2438 15.7353 28.8812 15.9357 29.4881L24.4464 55.2624C25.2581 57.7206 27.555 59.3811 30.1438 59.3811H36.9357C39.5246 59.3811 41.8215 57.7206 42.6332 55.2622L51.1431 29.4881C51.3435 28.8811 51.4604 28.2439 51.4001 27.6076C50.7404 20.6489 42.9967 15.1578 33.5399 15.1578H33.5389ZM1.38114 18.7296C1.38116 18.7296 1.38118 18.7296 1.38117 18.7296L0.568804 20.9652C0.254607 21.8298 0.700494 22.7855 1.56494 23.1002L9.27943 25.9088C10.3282 26.2907 11.4881 25.7505 11.8707 24.7019L11.9523 24.4783C12.2903 23.5522 11.813 22.5275 10.8866 22.1902L1.38112 18.7296C1.38109 18.7296 1.3811 18.7296 1.38114 18.7296V18.7296ZM66.3887 20.6309C66.0071 19.581 64.8463 19.0395 63.7966 19.4217L56.4129 22.11C55.3641 22.4918 54.8232 23.6514 55.2046 24.7004V24.7004C55.5863 25.7499 56.7465 26.2911 57.7959 25.9092L65.1799 23.2218C66.229 22.8399 66.7701 21.6801 66.3887 20.6309V20.6309ZM12.0244 36.1051C12.0244 36.1051 12.0244 36.1051 12.0243 36.1051L2.47975 38.6651C1.403 38.9539 0.763841 40.0605 1.05169 41.1375V41.1375C1.33983 42.2156 2.44764 42.8557 3.52557 42.567L10.8592 40.6028C12.079 40.2761 12.8034 39.0229 12.4777 37.8029L12.0246 36.1052C12.0246 36.1051 12.0245 36.1051 12.0244 36.1051V36.1051ZM55.0544 36.1051C55.0544 36.1051 55.0544 36.1051 55.0544 36.1051L54.9335 36.5582C54.4246 38.4659 55.5574 40.4251 57.4646 40.9359L63.5537 42.5665C64.6317 42.8552 65.7395 42.2149 66.0275 41.1367V41.1367C66.3151 40.0597 65.6759 38.9534 64.5993 38.6647L55.0545 36.105C55.0544 36.105 55.0544 36.105 55.0544 36.1051V36.1051ZM25.5809 61.627V61.627C25.5809 64.5847 27.9786 66.9824 30.9363 66.9824H38.8215C40.3001 66.9824 41.4988 65.7837 41.4988 64.3051V64.3051C41.4988 62.8265 40.3001 61.6278 38.8215 61.6278H25.5818C25.5813 61.6278 25.5809 61.6275 25.5809 61.627V61.627ZM25.5809 69.6446V69.6446C25.5809 72.6023 27.9786 75 30.9363 75H38.8216C40.3002 75 41.4988 73.8014 41.4988 72.3228V72.3228C41.4988 70.8441 40.3002 69.6455 38.8216 69.6455H25.5818C25.5813 69.6455 25.5809 69.6451 25.5809 69.6446V69.6446Z" fill="white" fill-opacity="0.5"/>
</svg>
