<svg width="75" height="76" viewBox="0 0 75 76" fill="none" xmlns="http://www.w3.org/2000/svg">
<path d="M69.4542 0.000527182H5.54577C4.82738 -0.00944342 4.11406 0.122105 3.44655 0.38766C2.77904 0.653215 2.17041 1.04757 1.65542 1.54822C1.14044 2.04886 0.729181 2.64598 0.445141 3.30547C0.161101 3.96497 0.00984052 4.67392 0 5.39183V70.0121C0.00984052 70.73 0.161101 71.439 0.445141 72.0985C0.729181 72.758 1.14044 73.3551 1.65542 73.8557C2.17041 74.3564 2.77904 74.7507 3.44655 75.0163C4.11406 75.2818 4.82738 75.4134 5.54577 75.4034H69.4542C70.1726 75.4134 70.8859 75.2818 71.5534 75.0163C72.221 74.7507 72.8296 74.3564 73.3446 73.8557C73.8596 73.3551 74.2708 72.758 74.5549 72.0985C74.8389 71.439 74.9902 70.73 75 70.0121V5.39183C74.9902 4.67392 74.8389 3.96497 74.5549 3.30547C74.2708 2.64598 73.8596 2.04886 73.3446 1.54822C72.8296 1.04757 72.221 0.653215 71.5534 0.38766C70.8859 0.122105 70.1726 -0.00944342 69.4542 0.000527182ZM22.749 63.1127H11.4311V29.1814H22.749V63.1127ZM17.09 24.4311C15.5292 24.4311 14.0322 23.8114 12.9285 22.7084C11.8248 21.6055 11.2047 20.1095 11.2047 18.5496C11.2047 16.9898 11.8248 15.4938 12.9285 14.3908C14.0322 13.2879 15.5292 12.6682 17.09 12.6682C17.9189 12.5743 18.7582 12.6564 19.5531 12.9091C20.348 13.1618 21.0805 13.5794 21.7027 14.1347C22.3249 14.6899 22.8227 15.3702 23.1635 16.131C23.5043 16.8919 23.6805 17.716 23.6805 18.5496C23.6805 19.3832 23.5043 20.2074 23.1635 20.9683C22.8227 21.7291 22.3249 22.4094 21.7027 22.9646C21.0805 23.5199 20.348 23.9375 19.5531 24.1902C18.7582 24.4429 17.9189 24.525 17.09 24.4311ZM63.5689 63.1127H52.251V44.9029C52.251 40.3411 50.6288 37.3627 46.5166 37.3627C45.2439 37.372 44.0047 37.7709 42.9659 38.5057C41.9271 39.2404 41.1386 40.2758 40.7067 41.4721C40.4115 42.3583 40.2836 43.2915 40.3295 44.2243V63.075H29.0116V29.1437H40.3295V33.9318C41.3576 32.1489 42.853 30.6802 44.6546 29.6836C46.4561 28.6871 48.4956 28.2006 50.5533 28.2766C58.0986 28.2766 63.5689 33.1401 63.5689 43.5834V63.1127Z" fill="#C2F1FA"/>
</svg>
