<svg width="432" height="400" viewBox="0 0 432 400" fill="none" xmlns="http://www.w3.org/2000/svg">
<rect width="432" height="400" rx="39" fill="#EBBE65"/>
<path d="M117.474 45.403C119.97 45.403 121.725 43.414 121.725 40.801C121.725 38.227 119.97 36.55 117.474 36.55H116.967V45.403H117.474ZM109.947 58V29.92H117.474C124.104 29.92 128.745 34.288 128.745 40.801C128.745 47.275 124.104 52.033 117.474 52.033H116.967V58H109.947ZM140.451 46.222C140.451 44.272 138.774 43.258 135.966 43.258C134.484 43.258 132.768 43.57 131.637 43.999V37.759C133.392 37.33 135.381 37.135 137.799 37.135C143.415 37.135 147.081 40.567 147.081 45.481V52.15C147.081 54.373 147.432 56.44 147.978 58H141.699L141.387 56.362C140.334 57.766 138.696 58.702 136.356 58.702C132.339 58.702 129.18 55.738 129.18 51.565C129.18 47.548 132.534 45.091 136.317 45.091C137.838 45.091 139.281 45.52 140.451 46.378V46.222ZM135.849 51.487C135.849 52.579 136.824 53.398 138.189 53.398C139.515 53.398 140.451 52.618 140.451 51.487C140.451 50.356 139.476 49.654 138.15 49.654C136.785 49.654 135.849 50.395 135.849 51.487ZM159.334 58.858C153.016 58.858 148.57 54.373 148.57 47.977C148.57 41.62 152.86 37.135 158.944 37.135C160.66 37.135 162.337 37.564 163.507 38.5V30.7H170.137V47.977C170.137 54.373 165.691 58.858 159.334 58.858ZM155.317 47.977C155.317 50.59 156.955 52.423 159.334 52.423C161.713 52.423 163.39 50.59 163.39 47.977C163.39 45.364 161.713 43.57 159.334 43.57C156.955 43.57 155.317 45.364 155.317 47.977ZM182.112 58.858C175.716 58.858 171.27 54.334 171.27 47.899C171.27 41.581 175.131 37.135 181.332 37.135C187.338 37.135 191.472 41.23 191.121 47.236L178.68 50.941C179.577 51.877 180.942 52.423 182.658 52.423C185.076 52.423 187.923 51.409 189.99 49.771V57.064C187.65 58.195 184.764 58.858 182.112 58.858ZM177.471 47.236L184.569 45.013C184.023 43.843 182.97 43.18 181.566 43.18C179.148 43.18 177.588 44.467 177.471 47.236ZM199.634 29.92V58H193.004V29.92H199.634ZM218.059 45.403C220.555 45.403 222.31 43.414 222.31 40.801C222.31 38.227 220.555 36.55 218.059 36.55H217.552V45.403H218.059ZM210.532 58V29.92H218.059C224.689 29.92 229.33 34.288 229.33 40.801C229.33 47.275 224.689 52.033 218.059 52.033H217.552V58H210.532ZM231.052 37.642C233.197 38.734 236.473 37.057 239.281 37.057C240.373 37.057 241.231 37.213 242.089 37.525V43.96C241.465 43.57 240.646 43.258 239.593 43.258C239.008 43.258 238.072 43.492 237.604 43.882V58H231.052V37.642ZM253.33 52.423C255.748 52.423 257.425 50.59 257.425 47.977C257.425 45.364 255.748 43.57 253.33 43.57C250.951 43.57 249.274 45.364 249.274 47.977C249.274 50.59 250.951 52.423 253.33 52.423ZM242.566 47.977C242.566 41.62 247.012 37.135 253.33 37.135C259.687 37.135 264.133 41.62 264.133 47.977C264.133 54.373 259.687 58.858 253.33 58.858C247.012 58.858 242.566 54.373 242.566 47.977ZM272.377 58C272.377 62.173 270.076 65.995 265.864 67.594L262.081 62.017C264.616 61.51 265.747 60.106 265.747 58V37.72H272.377V58ZM264.85 32.572C264.85 30.349 266.644 28.555 268.867 28.555C271.129 28.555 272.923 30.349 272.923 32.572C272.923 34.795 271.129 36.589 268.867 36.589C266.644 36.589 264.85 34.795 264.85 32.572ZM284.906 58.858C278.51 58.858 274.064 54.334 274.064 47.899C274.064 41.581 277.925 37.135 284.126 37.135C290.132 37.135 294.266 41.23 293.915 47.236L281.474 50.941C282.371 51.877 283.736 52.423 285.452 52.423C287.87 52.423 290.717 51.409 292.784 49.771V57.064C290.444 58.195 287.558 58.858 284.906 58.858ZM280.265 47.236L287.363 45.013C286.817 43.843 285.764 43.18 284.36 43.18C281.942 43.18 280.382 44.467 280.265 47.236ZM309.877 44.818C308.98 44.038 307.693 43.57 306.211 43.57C303.442 43.57 301.492 45.364 301.492 47.977C301.492 50.59 303.442 52.423 306.211 52.423C307.771 52.423 309.136 52.111 310.072 51.526V58.078C308.746 58.585 307.342 58.858 305.86 58.858C299.308 58.858 294.667 54.373 294.667 47.977C294.667 41.62 299.308 37.135 305.86 37.135C307.264 37.135 308.629 37.369 309.877 37.876V44.818ZM321.962 58.312C315.644 58.312 311.744 55.075 311.744 48.094V29.92H318.374V37.72H322.001V43.96H318.374V48.289C318.374 50.668 319.349 51.487 321.962 51.487V58.312Z" fill="white"/>
<g clip-path="url(#clip0_121_94)">
<path d="M136.34 236.604C121.166 219.187 112.812 196.863 112.812 173.742C112.812 150.62 121.166 128.303 136.34 110.885L139.511 107.248L144.031 108.941C170.913 119.023 188.976 145.064 188.976 173.742C188.976 202.419 170.913 228.466 144.031 238.549L139.511 240.241L136.34 236.604Z" fill="white"/>
<path d="M141.584 232.036C165.179 223.186 182.015 200.396 182.015 173.742C182.015 147.088 165.179 124.304 141.584 115.454C127.998 131.05 119.768 151.436 119.768 173.742C119.768 196.047 127.998 216.439 141.584 232.036Z" fill="white"/>
<path d="M208.566 269.489C184.524 269.489 161.536 260.541 143.835 244.289L136.003 237.095L145.73 232.802C169.16 222.468 184.297 199.285 184.297 173.736C184.297 148.186 169.16 125.015 145.73 114.675L136.003 110.382L143.835 103.188C161.536 86.948 184.524 78 208.566 78C232.609 78 255.596 86.948 273.297 103.2L281.129 110.394L271.402 114.687C247.973 125.021 232.836 148.204 232.836 173.748C232.836 199.292 247.973 222.48 271.402 232.814L281.129 237.107L273.297 244.301C255.596 260.548 232.609 269.502 208.566 269.502V269.489Z" fill="white"/>
<path d="M191.251 173.742C191.251 202.929 173.673 228.08 148.539 239.168C164.345 253.679 185.419 262.535 208.566 262.535C231.713 262.535 252.787 253.679 268.592 239.168C243.458 228.08 225.88 202.929 225.88 173.742C225.88 144.555 243.458 119.41 268.592 108.322C252.787 93.8111 231.713 84.9551 208.566 84.9551C185.419 84.9551 164.345 93.8111 148.539 108.322C173.673 119.41 191.251 144.561 191.251 173.742Z" fill="white"/>
<path d="M273.1 238.543C246.218 228.46 228.155 202.413 228.155 173.736C228.155 145.058 246.218 119.017 273.1 108.935L277.62 107.242L280.791 110.879C295.965 128.297 304.319 150.621 304.319 173.736C304.319 196.851 295.965 219.181 280.791 236.599L277.62 240.235L273.1 238.543Z" fill="white"/>
<path d="M275.548 232.036C289.133 216.439 297.364 196.047 297.364 173.742C297.364 151.436 289.133 131.05 275.548 115.454C251.953 124.304 235.117 147.094 235.117 173.742C235.117 200.389 251.953 223.186 275.548 232.036Z" fill="white"/>
<path d="M146.668 286.085C144.821 282.773 129.942 272.696 110.622 262.865C107.322 261.81 91.9278 256.604 75.1901 246.049C50.1662 230.269 34.1766 209.975 28.9388 187.35C23.5967 164.247 29.3559 142.439 45.5907 124.279C56.7901 111.755 69.2959 105.126 71.3445 104.089C73.7855 102.672 91.7132 92.7432 113.683 92.7432C124.802 92.7432 135.155 95.2883 144.447 100.311L153.114 104.991L145.803 111.59C143.705 113.485 141.687 115.503 139.817 117.582C135.272 122.617 131.347 128.204 128.133 134.202L120.301 131.798C120.742 131.044 120.797 130.099 120.368 129.265C120.343 129.216 120.319 129.167 120.288 129.124L118.203 130.209L120.288 131.792L118.154 131.135L119.098 132.89C119.147 132.865 119.19 132.84 119.239 132.816C119.699 132.571 120.055 132.215 120.301 131.798L126.82 136.753C125.158 140.126 123.717 143.622 122.545 147.143L121.527 150.191L120.822 152.92C119.282 158.856 118.393 165.002 118.16 171.178L118.025 174.808L118.16 178.053C118.436 184.738 119.479 191.349 121.27 197.69L122.208 201.014L123.508 204.541C123.913 205.639 124.355 206.749 124.851 207.92L126.311 211.367L128.219 214.912C130.641 219.426 133.506 223.749 136.726 227.76C138.486 229.944 140.369 232.059 142.313 234.04L147.44 239.253L141.976 244.111C140.43 245.485 139.768 247.03 139.804 247.907L139.829 248.257C139.847 248.618 140.007 249.011 140.258 249.324C142.528 252.127 146.251 255.058 151.016 257.806C151.016 257.806 151.028 257.806 151.041 257.806C151.114 257.806 151.298 257.744 151.317 257.456C151.409 256.328 151.464 255.408 151.495 254.555L151.869 243.301L161.768 248.674C164.755 250.293 167.913 251.752 171.152 253.004L175.586 254.715L175.605 259.468C175.641 267.919 176.604 270.029 176.647 270.115L179.787 276.174L173.783 279.418L149.918 292.365L146.661 286.079L146.668 286.085Z" fill="white"/>
<path d="M168.662 259.511C165.147 258.156 161.737 256.585 158.462 254.807C158.425 255.923 158.352 257.003 158.266 258.045C157.83 263.369 152.114 266.466 147.557 263.847C143.215 261.345 138.253 257.892 134.873 253.721C133.69 252.262 132.99 250.465 132.898 248.619C132.892 248.539 132.886 248.459 132.88 248.386C132.678 245.154 134.346 241.615 137.37 238.929C135.241 236.764 133.223 234.495 131.316 232.127C127.845 227.804 124.753 223.149 122.104 218.218C121.999 218.285 121.889 218.359 121.773 218.42C119.749 219.524 117.234 218.727 116.161 216.654C115.081 214.569 115.854 212.005 117.878 210.907C118.074 210.803 118.264 210.717 118.461 210.65C117.945 209.435 117.455 208.209 116.995 206.964C116.743 207.209 116.461 207.411 116.142 207.583C114.118 208.681 111.597 207.89 110.524 205.817C109.445 203.744 110.224 201.168 112.248 200.064C112.99 199.665 113.805 199.518 114.584 199.592C112.665 192.79 111.518 185.682 111.217 178.347C110.549 177.967 109.966 177.384 109.58 176.63C108.518 174.588 109.254 172.055 111.217 170.933C111.469 164.125 112.456 157.52 114.094 151.191C112.131 152.049 109.819 151.24 108.794 149.277C107.721 147.198 108.5 144.622 110.53 143.53C112.444 142.488 114.787 143.132 115.952 144.953C117.246 141.071 118.804 137.306 120.589 133.687C120.356 133.896 120.098 134.073 119.822 134.233C117.786 135.331 115.271 134.54 114.192 132.46C113.118 130.381 113.891 127.812 115.928 126.714C117.951 125.616 120.466 126.401 121.546 128.474C121.944 129.259 122.091 130.112 122.006 130.927C125.502 124.396 129.758 118.355 134.652 112.933C136.707 110.652 138.872 108.487 141.148 106.432C109.494 89.3335 74.6688 110.21 74.6688 110.21C74.6688 110.21 23.9463 134.914 35.7161 185.787C47.4921 236.653 113.253 256.408 113.253 256.408C113.253 256.408 148.324 274.163 152.844 282.884L170.477 273.316C169.158 270.771 168.686 265.576 168.662 259.511ZM111.481 189.485C112.56 191.558 111.788 194.127 109.757 195.231C107.733 196.335 105.219 195.544 104.145 193.459C103.066 191.386 103.839 188.816 105.863 187.718C107.893 186.615 110.414 187.412 111.481 189.485ZM72.3197 178.12C74.3437 177.023 76.8645 177.814 77.9378 179.887C79.0111 181.966 78.2383 184.535 76.2143 185.639C74.1781 186.743 71.6696 185.952 70.5901 183.867C69.5168 181.8 70.2834 179.224 72.3197 178.12ZM64.9291 173.061C63.8557 170.975 64.6224 168.412 66.6525 167.314C68.6826 166.21 71.1973 167.001 72.2768 169.074C73.3501 171.147 72.5773 173.723 70.541 174.821C68.5109 175.919 66.0024 175.134 64.9291 173.061ZM75.8341 167.149C74.7546 165.069 75.5274 162.5 77.5637 161.396C79.5877 160.298 82.1085 161.083 83.1818 163.162C84.2551 165.235 83.4762 167.811 81.4522 168.903C79.4221 170.006 76.9074 169.215 75.8341 167.149ZM83.2247 172.208C85.2487 171.11 87.7695 171.902 88.849 173.981C89.9223 176.054 89.1434 178.623 87.1194 179.727C85.0831 180.831 82.5685 180.04 81.4951 177.955C80.4218 175.888 81.1885 173.312 83.2247 172.208ZM88.5116 155.459C90.5356 154.367 93.0564 155.146 94.1297 157.225C95.2092 159.304 94.4303 161.874 92.4001 162.972C90.3761 164.07 87.8554 163.285 86.7882 161.212C85.7087 159.133 86.4815 156.563 88.5116 155.459ZM89.2844 182.818C91.3084 181.714 93.8353 182.505 94.9087 184.578C95.982 186.657 95.2031 189.233 93.1791 190.331C91.1551 191.429 88.6404 190.638 87.561 188.565C86.4815 186.486 87.2604 183.91 89.2844 182.818ZM92.4492 172.024C91.3697 169.951 92.1425 167.382 94.1727 166.278C96.1967 165.174 98.7236 165.971 99.7908 168.044C100.87 170.117 100.091 172.693 98.0673 173.791C96.0311 174.894 93.5225 174.103 92.4492 172.024ZM99.5761 149.461C101.606 148.363 104.127 149.148 105.2 151.233C106.274 153.3 105.495 155.87 103.471 156.974C101.441 158.072 98.926 157.287 97.8526 155.214C96.7732 153.129 97.546 150.559 99.5761 149.461ZM100.232 176.875C102.263 175.778 104.783 176.575 105.85 178.642C106.93 180.727 106.151 183.297 104.127 184.388C102.103 185.492 99.5822 184.713 98.5089 182.628C97.4295 180.555 98.2084 177.979 100.232 176.875ZM110.861 162.04C111.941 164.125 111.162 166.695 109.132 167.786C107.102 168.896 104.587 168.105 103.514 166.026C102.44 163.953 103.207 161.377 105.237 160.273C107.267 159.176 109.788 159.967 110.861 162.04ZM110.518 134.454C111.591 136.533 110.818 139.109 108.794 140.206C106.758 141.31 104.244 140.513 103.164 138.44C102.091 136.361 102.864 133.791 104.9 132.687C106.924 131.596 109.438 132.375 110.518 134.454ZM98.8278 122.09C100.864 120.986 103.373 121.777 104.452 123.862C105.525 125.929 104.759 128.505 102.722 129.609C100.692 130.7 98.1777 129.915 97.0983 127.842C96.0249 125.757 96.7977 123.187 98.8278 122.09ZM99.5638 140.397C100.637 142.469 99.8705 145.045 97.8404 146.137C95.8103 147.241 93.2956 146.444 92.2223 144.377C91.1428 142.298 91.9156 139.728 93.9457 138.624C95.9759 137.526 98.4905 138.311 99.5638 140.397ZM87.8799 128.026C89.91 126.922 92.4247 127.714 93.498 129.793C94.5775 131.866 93.8047 134.435 91.7745 135.539C89.7506 136.637 87.2236 135.846 86.1564 133.773C85.077 131.694 85.8559 129.118 87.8799 128.026ZM88.4994 146.395C89.5788 148.468 88.7999 151.037 86.7759 152.141C84.7396 153.245 82.225 152.448 81.1578 150.375C80.0783 148.296 80.8511 145.726 82.8813 144.622C84.9052 143.524 87.426 144.309 88.4994 146.395ZM76.8154 134.031C78.8455 132.92 81.3541 133.718 82.4335 135.791C83.5068 137.864 82.7402 140.439 80.7101 141.543C78.6799 142.641 76.1591 141.844 75.0797 139.777C74.0064 137.692 74.7853 135.122 76.8154 134.031ZM77.5453 152.331C78.6186 154.398 77.8519 156.974 75.8218 158.078C73.7917 159.176 71.2709 158.385 70.1976 156.312C69.1181 154.233 69.897 151.663 71.9272 150.559C73.9573 149.455 76.4719 150.246 77.5453 152.331ZM65.8613 139.955C67.8914 138.863 70.4122 139.642 71.4856 141.721C72.5589 143.8 71.7861 146.376 69.756 147.474C67.732 148.572 65.2112 147.781 64.1379 145.708C63.0584 143.629 63.8373 141.059 65.8613 139.955ZM61.016 156.471C63.0523 155.367 65.5608 156.158 66.6403 158.243C67.7136 160.316 66.9469 162.892 64.9107 163.99C62.8867 165.088 60.372 164.291 59.2987 162.218C58.2254 160.145 58.992 157.575 61.016 156.471ZM54.3246 179.175C53.2451 177.102 54.0179 174.533 56.048 173.435C58.0782 172.337 60.5989 173.122 61.6661 175.195C62.7456 177.274 61.9667 179.844 59.9427 180.948C57.9126 182.045 55.3979 181.26 54.3246 179.175ZM59.9856 190C58.9123 187.927 59.6789 185.351 61.7091 184.247C63.7392 183.149 66.2539 183.941 67.3272 186.014C68.4066 188.099 67.6338 190.668 65.6037 191.76C63.5736 192.864 61.0589 192.073 59.9856 190ZM66.0515 200.598C64.972 198.525 65.7448 195.955 67.7749 194.851C69.7989 193.753 72.3197 194.544 73.393 196.617C74.4725 198.696 73.6936 201.266 71.6696 202.37C69.6394 203.468 67.1248 202.683 66.0515 200.598ZM77.2999 213.201C75.2698 214.305 72.7552 213.514 71.6818 211.441C70.6024 209.368 71.3752 206.786 73.4053 205.688C75.4354 204.59 77.9501 205.381 79.0234 207.454C80.1029 209.533 79.3301 212.103 77.2999 213.201ZM76.6498 194.477C75.5765 192.398 76.3493 189.822 78.3794 188.73C80.4095 187.626 82.9242 188.418 83.9975 190.491C85.0831 192.57 84.3042 195.139 82.2741 196.243C80.2439 197.341 77.7293 196.556 76.6498 194.477ZM82.2802 205.308C81.2069 203.241 81.9858 200.665 84.0098 199.561C86.046 198.457 88.5546 199.255 89.6279 201.328C90.7135 203.407 89.9407 205.976 87.9044 207.08C85.8804 208.178 83.3596 207.393 82.2802 205.308ZM94.2892 219.432C92.2652 220.53 89.7444 219.739 88.665 217.666C87.5916 215.593 88.3706 213.011 90.3946 211.919C92.4247 210.815 94.9393 211.612 96.0127 213.679C97.0921 215.752 96.3193 218.334 94.2892 219.432ZM93.1913 199.396C92.1119 197.323 92.8908 194.753 94.9148 193.649C96.9449 192.545 99.4657 193.342 100.539 195.421C101.612 197.494 100.84 200.064 98.8094 201.168C96.7855 202.266 94.2708 201.481 93.1913 199.396ZM99.5761 211.754C98.5028 209.681 99.2756 207.099 101.3 206.001C103.33 204.903 105.85 205.7 106.924 207.767C107.997 209.84 107.224 212.422 105.194 213.514C103.17 214.618 100.649 213.82 99.5761 211.754ZM110.825 224.357C108.801 225.455 106.28 224.663 105.206 222.59C104.133 220.505 104.906 217.942 106.93 216.838C108.966 215.734 111.475 216.525 112.554 218.61C113.628 220.677 112.861 223.253 110.825 224.357Z" fill="white"/>
<path d="M259.84 288.992L236.208 276.168L239.348 270.109C239.385 270.035 240.348 267.925 240.385 259.474L240.403 254.721L244.838 253.01C248.076 251.759 251.235 250.305 254.222 248.68L264.115 243.308L264.489 254.562C264.519 255.414 264.575 256.34 264.667 257.463C264.691 257.806 264.936 257.824 264.943 257.824C269.739 255.059 273.456 252.127 275.725 249.33C275.982 249.011 276.136 248.625 276.16 248.263V248.147L276.185 247.901C276.222 247.03 275.559 245.485 274.014 244.111L268.549 239.254L273.676 234.041C275.627 232.06 277.51 229.944 279.27 227.755C282.484 223.75 285.348 219.426 287.771 214.918L289.678 211.373L291.138 207.927C291.635 206.749 292.076 205.645 292.481 204.547L293.781 201.027L294.72 197.697C296.511 191.355 297.559 184.744 297.829 178.059L297.964 174.815L297.829 171.184C297.602 165.008 296.707 158.869 295.167 152.926L294.462 150.191L293.444 147.149C292.273 143.629 290.831 140.133 289.169 136.76L295.695 131.804C295.94 132.221 296.302 132.583 296.768 132.835C296.811 132.859 296.848 132.878 296.891 132.896L297.842 131.136L295.713 131.792L297.793 130.216L295.701 129.13C295.677 129.173 295.652 129.216 295.627 129.259C295.192 130.099 295.247 131.044 295.689 131.804L287.857 134.215C284.649 128.217 280.717 122.623 276.179 117.6C274.302 115.515 272.284 113.498 270.187 111.602L262.876 105.003L271.542 100.324C280.834 95.301 291.187 92.7559 302.307 92.7559C324.27 92.7559 342.198 102.685 344.645 104.102C346.693 105.138 359.205 111.768 370.399 124.292C386.64 142.451 392.399 164.26 387.051 187.357C381.813 209.981 365.817 230.275 340.799 246.055C324.061 256.61 308.667 261.823 305.367 262.872C286.041 272.703 271.156 282.786 269.316 286.091L266.053 292.384L259.827 288.992H259.84Z" fill="white"/>
<path d="M341.334 110.21C341.334 110.21 306.509 89.3335 274.855 106.432C277.13 108.487 279.295 110.652 281.35 112.933C286.244 118.355 290.501 124.396 293.997 130.927C293.911 130.112 294.058 129.259 294.457 128.474C295.536 126.401 298.051 125.616 300.075 126.714C302.111 127.812 302.884 130.381 301.811 132.46C300.731 134.54 298.217 135.331 296.18 134.233C295.904 134.073 295.647 133.896 295.414 133.687C297.198 137.306 298.756 141.071 300.05 144.953C301.216 143.132 303.559 142.488 305.472 143.53C307.502 144.622 308.281 147.198 307.208 149.277C306.184 151.24 303.872 152.049 301.909 151.191C303.546 157.52 304.534 164.125 304.785 170.933C306.748 172.055 307.484 174.588 306.423 176.63C306.037 177.384 305.454 177.967 304.785 178.347C304.485 185.682 303.338 192.79 301.418 199.592C302.197 199.518 303.013 199.665 303.755 200.064C305.779 201.168 306.558 203.744 305.478 205.817C304.405 207.89 301.884 208.681 299.86 207.583C299.541 207.411 299.259 207.209 299.008 206.964C298.548 208.209 298.057 209.435 297.542 210.65C297.738 210.717 297.928 210.803 298.125 210.907C300.149 212.005 300.921 214.569 299.842 216.654C298.769 218.727 296.254 219.524 294.23 218.42C294.113 218.359 294.003 218.285 293.899 218.218C291.249 223.149 288.158 227.804 284.687 232.127C282.779 234.495 280.761 236.764 278.633 238.929C281.657 241.615 283.325 245.154 283.123 248.386C283.116 248.459 283.11 248.539 283.104 248.619C283.012 250.465 282.313 252.262 281.129 253.721C277.75 257.892 272.788 261.345 268.446 263.847C263.889 266.466 258.172 263.369 257.737 258.045C257.651 257.003 257.577 255.923 257.541 254.807C254.265 256.585 250.855 258.156 247.341 259.511C247.316 265.576 246.844 270.771 245.525 273.316L263.159 282.884C267.679 274.163 302.749 256.408 302.749 256.408C302.749 256.408 368.51 236.653 380.286 185.787C392.056 134.914 341.334 110.21 341.334 110.21ZM354.987 156.471C357.01 157.575 357.777 160.145 356.704 162.218C355.63 164.291 353.116 165.088 351.092 163.99C349.056 162.892 348.289 160.316 349.362 158.243C350.442 156.158 352.95 155.367 354.987 156.471ZM315.77 176.875C317.794 177.979 318.573 180.555 317.494 182.628C316.42 184.713 313.899 185.492 311.875 184.388C309.851 183.297 309.073 180.727 310.152 178.642C311.219 176.575 313.74 175.778 315.77 176.875ZM312.532 156.974C310.508 155.87 309.729 153.3 310.802 151.233C311.875 149.148 314.396 148.363 316.426 149.461C318.457 150.559 319.229 153.129 318.15 155.214C317.077 157.287 314.562 158.072 312.532 156.974ZM317.935 173.791C315.911 172.693 315.132 170.117 316.212 168.044C317.279 165.971 319.806 165.174 321.83 166.278C323.86 167.382 324.633 169.951 323.553 172.024C322.48 174.103 319.971 174.894 317.935 173.791ZM321.873 157.225C322.946 155.146 325.467 154.367 327.491 155.459C329.521 156.563 330.294 159.133 329.214 161.212C328.147 163.285 325.626 164.07 323.602 162.972C321.572 161.874 320.793 159.304 321.873 157.225ZM321.094 184.578C322.167 182.505 324.694 181.714 326.718 182.818C328.742 183.91 329.521 186.486 328.442 188.565C327.362 190.638 324.847 191.429 322.823 190.331C320.799 189.233 320.021 186.657 321.094 184.578ZM328.883 179.727C326.859 178.623 326.08 176.054 327.154 173.981C328.233 171.902 330.754 171.11 332.778 172.208C334.814 173.312 335.581 175.888 334.507 177.955C333.434 180.04 330.919 180.831 328.883 179.727ZM334.55 168.903C332.526 167.811 331.747 165.235 332.821 163.162C333.894 161.083 336.415 160.298 338.439 161.396C340.475 162.5 341.248 165.069 340.168 167.149C339.095 169.215 336.58 170.006 334.55 168.903ZM338.065 179.887C339.138 177.814 341.659 177.023 343.683 178.12C345.719 179.224 346.486 181.8 345.412 183.867C344.333 185.952 341.824 186.743 339.788 185.639C337.764 184.535 336.991 181.966 338.065 179.887ZM345.461 174.821C343.425 173.723 342.652 171.147 343.726 169.074C344.805 167.001 347.32 166.21 349.35 167.314C351.38 168.412 352.147 170.975 351.073 173.061C350 175.134 347.492 175.919 345.461 174.821ZM344.517 141.721C345.59 139.642 348.111 138.863 350.141 139.955C352.165 141.059 352.944 143.629 351.865 145.708C350.791 147.781 348.271 148.572 346.247 147.474C344.216 146.376 343.444 143.8 344.517 141.721ZM344.075 150.559C346.105 151.663 346.884 154.233 345.805 156.312C344.732 158.385 342.211 159.176 340.181 158.078C338.151 156.974 337.384 154.398 338.457 152.331C339.531 150.246 342.045 149.455 344.075 150.559ZM333.569 135.791C334.648 133.718 337.157 132.92 339.187 134.031C341.217 135.122 341.996 137.692 340.923 139.777C339.843 141.844 337.323 142.641 335.292 141.543C333.262 140.439 332.496 137.864 333.569 135.791ZM333.121 144.622C335.151 145.726 335.924 148.296 334.845 150.375C333.778 152.448 331.263 153.245 329.227 152.141C327.203 151.037 326.424 148.468 327.503 146.395C328.576 144.309 331.097 143.524 333.121 144.622ZM322.505 129.793C323.578 127.714 326.092 126.922 328.123 128.026C330.147 129.118 330.926 131.694 329.846 133.773C328.779 135.846 326.252 136.637 324.228 135.539C322.198 134.435 321.425 131.866 322.505 129.793ZM322.057 138.624C324.087 139.728 324.86 142.298 323.78 144.377C322.707 146.444 320.192 147.241 318.162 146.137C316.132 145.045 315.365 142.469 316.439 140.397C317.512 138.311 320.027 137.526 322.057 138.624ZM311.55 123.862C312.63 121.777 315.138 120.986 317.175 122.09C319.205 123.187 319.978 125.757 318.904 127.842C317.825 129.915 315.31 130.7 313.28 129.609C311.244 128.505 310.477 125.929 311.55 123.862ZM307.208 140.206C305.184 139.109 304.411 136.533 305.485 134.454C306.564 132.375 309.079 131.596 311.103 132.687C313.139 133.791 313.912 136.361 312.838 138.44C311.759 140.513 309.244 141.31 307.208 140.206ZM306.871 167.786C304.841 166.695 304.062 164.125 305.141 162.04C306.214 159.967 308.735 159.176 310.765 160.273C312.795 161.377 313.562 163.953 312.489 166.026C311.415 168.105 308.901 168.896 306.871 167.786ZM304.522 189.485C305.589 187.412 308.11 186.615 310.14 187.718C312.164 188.816 312.937 191.386 311.857 193.459C310.784 195.544 308.269 196.335 306.245 195.231C304.215 194.127 303.442 191.558 304.522 189.485ZM310.796 222.59C309.723 224.663 307.202 225.455 305.178 224.357C303.142 223.253 302.375 220.677 303.448 218.61C304.528 216.525 307.036 215.734 309.073 216.838C311.097 217.942 311.869 220.505 310.796 222.59ZM316.426 211.754C315.353 213.82 312.832 214.618 310.808 213.514C308.778 212.422 308.005 209.84 309.079 207.767C310.152 205.7 312.673 204.903 314.703 206.001C316.727 207.099 317.5 209.681 316.426 211.754ZM317.193 201.168C315.163 200.064 314.39 197.494 315.463 195.421C316.537 193.342 319.058 192.545 321.088 193.649C323.112 194.753 323.891 197.323 322.811 199.396C321.732 201.481 319.217 202.266 317.193 201.168ZM327.338 217.666C326.258 219.739 323.737 220.53 321.713 219.432C319.683 218.334 318.91 215.752 319.99 213.679C321.063 211.612 323.578 210.815 325.608 211.919C327.632 213.011 328.411 215.593 327.338 217.666ZM333.722 205.308C332.643 207.393 330.122 208.178 328.098 207.08C326.062 205.976 325.289 203.407 326.375 201.328C327.448 199.255 329.956 198.457 331.993 199.561C334.017 200.665 334.796 203.241 333.722 205.308ZM333.728 196.243C331.698 195.139 330.919 192.57 332.005 190.491C333.078 188.418 335.593 187.626 337.623 188.73C339.653 189.822 340.426 192.398 339.353 194.477C338.273 196.556 335.759 197.341 333.728 196.243ZM344.321 211.441C343.247 213.514 340.733 214.305 338.703 213.201C336.672 212.103 335.9 209.533 336.979 207.454C338.052 205.381 340.567 204.59 342.597 205.688C344.627 206.786 345.4 209.368 344.321 211.441ZM349.951 200.598C348.878 202.683 346.363 203.468 344.333 202.37C342.309 201.266 341.53 198.696 342.609 196.617C343.683 194.544 346.204 193.753 348.228 194.851C350.258 195.955 351.031 198.525 349.951 200.598ZM356.017 190C354.944 192.073 352.429 192.864 350.399 191.76C348.369 190.668 347.596 188.099 348.675 186.014C349.749 183.941 352.263 183.149 354.293 184.247C356.324 185.351 357.09 187.927 356.017 190ZM361.678 179.175C360.605 181.26 358.09 182.045 356.06 180.948C354.036 179.844 353.257 177.274 354.336 175.195C355.404 173.122 357.924 172.337 359.954 173.435C361.985 174.533 362.757 177.102 361.678 179.175Z" fill="white"/>
<path d="M229.615 359C226.235 359 222.709 357.675 215.097 353.548C212.257 352.008 209.915 350.653 208.001 349.341C206.087 350.653 203.744 352.002 200.905 353.548C194.238 357.16 190.159 358.994 186.387 358.994C182.897 358.994 180.567 357.43 179.174 356.498C176.684 354.83 172.587 350.763 173.115 342.263C173.207 340.754 173.434 339.35 173.679 338.191L145.687 284.172L175.55 267.987L203.499 321.926C204.855 322.405 206.437 323.091 208.001 324.06C209.565 323.091 211.147 322.405 212.503 321.926L240.452 267.987L270.315 284.172L242.323 338.191C242.568 339.356 242.795 340.761 242.887 342.263C243.415 350.757 239.318 354.83 236.827 356.498C235.435 357.43 233.098 358.994 229.615 358.994V359Z" fill="white"/>
<path d="M243.366 277.48L217.288 327.814C217.288 327.814 209.879 329.077 208.002 334.094C206.119 329.071 198.716 327.814 198.716 327.814L172.637 277.48L155.004 287.042L181.083 337.375C181.083 337.375 177.685 347.139 183.045 350.726C185.897 352.64 187.014 353.167 197.594 347.439C204.954 343.447 207.235 341.57 208.008 339.497C208.781 341.564 211.062 343.447 218.422 347.439C229.002 353.173 230.112 352.64 232.971 350.726C238.331 347.139 234.933 337.375 234.933 337.375L261.012 287.042L243.379 277.48H243.366Z" fill="white"/>
<path d="M141.583 232.036C127.998 216.439 119.767 196.047 119.767 173.742C119.767 151.436 127.998 131.05 141.583 115.454C165.178 124.304 182.014 147.094 182.014 173.742C182.014 200.389 165.178 223.186 141.583 232.036Z" fill="#EBBE65"/>
<path d="M268.591 239.168C252.786 253.679 231.712 262.535 208.565 262.535C185.418 262.535 164.344 253.679 148.538 239.168C173.672 228.08 191.25 202.929 191.25 173.742C191.25 144.555 173.672 119.41 148.538 108.322C164.344 93.8111 185.418 84.9551 208.565 84.9551C231.712 84.9551 252.786 93.8111 268.591 108.322C243.457 119.41 225.879 144.561 225.879 173.742C225.879 202.923 243.457 228.08 268.591 239.168Z" fill="#EBBE65"/>
<path d="M297.362 173.742C297.362 196.047 289.131 216.439 275.546 232.036C251.951 223.186 235.115 200.396 235.115 173.742C235.115 147.088 251.951 124.304 275.546 115.454C289.131 131.05 297.362 151.436 297.362 173.742Z" fill="#EBBE65"/>
<path d="M168.661 259.511C165.146 258.156 161.736 256.585 158.461 254.807C158.424 255.923 158.351 257.003 158.265 258.045C157.829 263.369 152.113 266.466 147.556 263.847C143.214 261.345 138.252 257.892 134.872 253.721C133.689 252.262 132.989 250.465 132.897 248.619C132.891 248.539 132.885 248.459 132.879 248.386C132.677 245.154 134.345 241.615 137.369 238.929C135.24 236.764 133.222 234.495 131.315 232.127C127.844 227.804 124.752 223.149 122.103 218.218C121.998 218.285 121.888 218.359 121.772 218.42C119.748 219.524 117.233 218.727 116.16 216.654C115.08 214.569 115.853 212.005 117.877 210.907C118.073 210.803 118.263 210.717 118.46 210.65C117.944 209.435 117.454 208.209 116.994 206.964C116.742 207.209 116.46 207.411 116.141 207.583C114.117 208.681 111.596 207.89 110.523 205.817C109.444 203.744 110.223 201.168 112.247 200.064C112.989 199.665 113.804 199.518 114.583 199.592C112.664 192.79 111.517 185.682 111.216 178.347C110.548 177.967 109.965 177.384 109.579 176.63C108.517 174.588 109.253 172.055 111.216 170.933C111.468 164.125 112.455 157.52 114.093 151.191C112.13 152.049 109.818 151.24 108.793 149.277C107.72 147.198 108.499 144.622 110.529 143.53C112.443 142.488 114.786 143.132 115.951 144.953C117.245 141.071 118.803 137.306 120.588 133.687C120.355 133.896 120.097 134.073 119.821 134.233C117.785 135.331 115.27 134.54 114.191 132.46C113.117 130.381 113.89 127.812 115.927 126.714C117.951 125.616 120.465 126.401 121.545 128.474C121.943 129.259 122.09 130.112 122.005 130.927C125.501 124.396 129.757 118.355 134.652 112.933C136.706 110.652 138.871 108.487 141.147 106.432C109.493 89.3335 74.6678 110.21 74.6678 110.21C74.6678 110.21 23.9453 134.914 35.7151 185.787C47.4911 236.653 113.252 256.408 113.252 256.408C113.252 256.408 148.323 274.163 152.843 282.884L170.476 273.316C169.157 270.771 168.685 265.576 168.661 259.511ZM111.48 189.485C112.559 191.558 111.787 194.127 109.756 195.231C107.732 196.335 105.218 195.544 104.144 193.459C103.065 191.386 103.838 188.816 105.862 187.718C107.892 186.615 110.413 187.412 111.48 189.485ZM72.3187 178.12C74.3427 177.023 76.8635 177.814 77.9368 179.887C79.0102 181.966 78.2374 184.535 76.2134 185.639C74.1771 186.743 71.6686 185.952 70.5891 183.867C69.5158 181.8 70.2825 179.224 72.3187 178.12ZM64.9281 173.061C63.8548 170.975 64.6214 168.412 66.6515 167.314C68.6817 166.21 71.1963 167.001 72.2758 169.074C73.3491 171.147 72.5763 173.723 70.5401 174.821C68.5099 175.919 66.0014 175.134 64.9281 173.061ZM75.8331 167.149C74.7536 165.069 75.5264 162.5 77.5627 161.396C79.5867 160.298 82.1075 161.083 83.1808 163.162C84.2541 165.235 83.4752 167.811 81.4512 168.903C79.4211 170.006 76.9064 169.215 75.8331 167.149ZM83.2237 172.208C85.2477 171.11 87.7685 171.902 88.848 173.981C89.9213 176.054 89.1424 178.623 87.1184 179.727C85.0821 180.831 82.5675 180.04 81.4941 177.955C80.4208 175.888 81.1875 173.312 83.2237 172.208ZM88.5106 155.459C90.5346 154.367 93.0554 155.146 94.1288 157.225C95.2082 159.304 94.4293 161.874 92.3992 162.972C90.3752 164.07 87.8544 163.285 86.7872 161.212C85.7077 159.133 86.4805 156.563 88.5106 155.459ZM89.2834 182.818C91.3074 181.714 93.8344 182.505 94.9077 184.578C95.981 186.657 95.2021 189.233 93.1781 190.331C91.1541 191.429 88.6394 190.638 87.56 188.565C86.4805 186.486 87.2595 183.91 89.2834 182.818ZM92.4482 172.024C91.3688 169.951 92.1416 167.382 94.1717 166.278C96.1957 165.174 98.7226 165.971 99.7898 168.044C100.869 170.117 100.09 172.693 98.0663 173.791C96.0301 174.894 93.5216 174.103 92.4482 172.024ZM99.5751 149.461C101.605 148.363 104.126 149.148 105.199 151.233C106.273 153.3 105.494 155.87 103.47 156.974C101.44 158.072 98.925 157.287 97.8517 155.214C96.7722 153.129 97.545 150.559 99.5751 149.461ZM100.231 176.875C102.262 175.778 104.782 176.575 105.85 178.642C106.929 180.727 106.15 183.297 104.126 184.388C102.102 185.492 99.5813 184.713 98.5079 182.628C97.4285 180.555 98.2074 177.979 100.231 176.875ZM110.86 162.04C111.94 164.125 111.161 166.695 109.131 167.786C107.101 168.896 104.586 168.105 103.513 166.026C102.439 163.953 103.206 161.377 105.236 160.273C107.266 159.176 109.787 159.967 110.86 162.04ZM110.517 134.454C111.59 136.533 110.817 139.109 108.793 140.206C106.757 141.31 104.243 140.513 103.163 138.44C102.09 136.361 102.863 133.791 104.899 132.687C106.923 131.596 109.437 132.375 110.517 134.454ZM98.8269 122.09C100.863 120.986 103.372 121.777 104.451 123.862C105.524 125.929 104.758 128.505 102.722 129.609C100.691 130.7 98.1767 129.915 97.0973 127.842C96.024 125.757 96.7967 123.187 98.8269 122.09ZM99.5629 140.397C100.636 142.469 99.8695 145.045 97.8394 146.137C95.8093 147.241 93.2946 146.444 92.2213 144.377C91.1418 142.298 91.9146 139.728 93.9448 138.624C95.9749 137.526 98.4895 138.311 99.5629 140.397ZM87.8789 128.026C89.909 126.922 92.4237 127.714 93.497 129.793C94.5765 131.866 93.8037 134.435 91.7736 135.539C89.7496 136.637 87.2227 135.846 86.1555 133.773C85.076 131.694 85.8549 129.118 87.8789 128.026ZM88.4984 146.395C89.5778 148.468 88.7989 151.037 86.7749 152.141C84.7387 153.245 82.224 152.448 81.1568 150.375C80.0774 148.296 80.8501 145.726 82.8803 144.622C84.9043 143.524 87.4251 144.309 88.4984 146.395ZM76.8144 134.031C78.8446 132.92 81.3531 133.718 82.4325 135.791C83.5059 137.864 82.7392 140.439 80.7091 141.543C78.679 142.641 76.1582 141.844 75.0787 139.777C74.0054 137.692 74.7843 135.122 76.8144 134.031ZM77.5443 152.331C78.6176 154.398 77.851 156.974 75.8208 158.078C73.7907 159.176 71.2699 158.385 70.1966 156.312C69.1171 154.233 69.8961 151.663 71.9262 150.559C73.9563 149.455 76.471 150.246 77.5443 152.331ZM65.8603 139.955C67.8905 138.863 70.4113 139.642 71.4846 141.721C72.5579 143.8 71.7851 146.376 69.755 147.474C67.731 148.572 65.2102 147.781 64.1369 145.708C63.0574 143.629 63.8364 141.059 65.8603 139.955ZM61.015 156.471C63.0513 155.367 65.5598 156.158 66.6393 158.243C67.7126 160.316 66.9459 162.892 64.9097 163.99C62.8857 165.088 60.371 164.291 59.2977 162.218C58.2244 160.145 58.991 157.575 61.015 156.471ZM54.3236 179.175C53.2441 177.102 54.0169 174.533 56.0471 173.435C58.0772 172.337 60.598 173.122 61.6652 175.195C62.7446 177.274 61.9657 179.844 59.9417 180.948C57.9116 182.045 55.3969 181.26 54.3236 179.175ZM59.9846 190C58.9113 187.927 59.678 185.351 61.7081 184.247C63.7382 183.149 66.2529 183.941 67.3262 186.014C68.4057 188.099 67.6329 190.668 65.6027 191.76C63.5726 192.864 61.058 192.073 59.9846 190ZM66.0505 200.598C64.971 198.525 65.7438 195.955 67.7739 194.851C69.7979 193.753 72.3187 194.544 73.392 196.617C74.4715 198.696 73.6926 201.266 71.6686 202.37C69.6385 203.468 67.1238 202.683 66.0505 200.598ZM77.299 213.201C75.2688 214.305 72.7542 213.514 71.6809 211.441C70.6014 209.368 71.3742 206.786 73.4043 205.688C75.4344 204.59 77.9491 205.381 79.0224 207.454C80.1019 209.533 79.3291 212.103 77.299 213.201ZM76.6488 194.477C75.5755 192.398 76.3483 189.822 78.3784 188.73C80.4085 187.626 82.9232 188.418 83.9965 190.491C85.0821 192.57 84.3032 195.139 82.2731 196.243C80.243 197.341 77.7283 196.556 76.6488 194.477ZM82.2792 205.308C81.2059 203.241 81.9848 200.665 84.0088 199.561C86.0451 198.457 88.5536 199.255 89.6269 201.328C90.7125 203.407 89.9397 205.976 87.9035 207.08C85.8795 208.178 83.3587 207.393 82.2792 205.308ZM94.2882 219.432C92.2642 220.53 89.7434 219.739 88.664 217.666C87.5907 215.593 88.3696 213.011 90.3936 211.919C92.4237 210.815 94.9384 211.612 96.0117 213.679C97.0911 215.752 96.3183 218.334 94.2882 219.432ZM93.1904 199.396C92.1109 197.323 92.8898 194.753 94.9138 193.649C96.9439 192.545 99.4647 193.342 100.538 195.421C101.611 197.494 100.839 200.064 98.8085 201.168C96.7845 202.266 94.2698 201.481 93.1904 199.396ZM99.5751 211.754C98.5018 209.681 99.2746 207.099 101.299 206.001C103.329 204.903 105.85 205.7 106.923 207.767C107.996 209.84 107.223 212.422 105.193 213.514C103.169 214.618 100.648 213.82 99.5751 211.754ZM110.824 224.357C108.8 225.455 106.279 224.663 105.206 222.59C104.132 220.505 104.905 217.942 106.929 216.838C108.965 215.734 111.474 216.525 112.553 218.61C113.627 220.677 112.86 223.253 110.824 224.357Z" fill="#ED6936"/>
<path d="M183.043 350.726C185.895 352.64 187.012 353.167 197.592 347.439C207.712 341.956 208.227 340.454 208.423 336.97C208.84 329.531 198.714 327.814 198.714 327.814L172.635 277.48L155.002 287.042L181.081 337.375C181.081 337.375 177.683 347.139 183.043 350.726Z" fill="#ED6936"/>
<path d="M341.332 110.21C341.332 110.21 306.507 89.3335 274.853 106.432C277.128 108.487 279.293 110.652 281.348 112.933C286.242 118.355 290.499 124.396 293.995 130.927C293.909 130.112 294.056 129.259 294.455 128.474C295.534 126.401 298.049 125.616 300.073 126.714C302.109 127.812 302.882 130.381 301.809 132.46C300.729 134.54 298.215 135.331 296.178 134.233C295.902 134.073 295.645 133.896 295.412 133.687C297.197 137.306 298.754 141.071 300.049 144.953C301.214 143.132 303.557 142.488 305.47 143.53C307.5 144.622 308.279 147.198 307.206 149.277C306.182 151.24 303.87 152.049 301.907 151.191C303.545 157.52 304.532 164.125 304.783 170.933C306.746 172.055 307.482 174.588 306.421 176.63C306.035 177.384 305.452 177.967 304.783 178.347C304.483 185.682 303.336 192.79 301.416 199.592C302.195 199.518 303.011 199.665 303.753 200.064C305.777 201.168 306.556 203.744 305.477 205.817C304.403 207.89 301.882 208.681 299.858 207.583C299.539 207.411 299.257 207.209 299.006 206.964C298.546 208.209 298.055 209.435 297.54 210.65C297.736 210.717 297.926 210.803 298.123 210.907C300.147 212.005 300.919 214.569 299.84 216.654C298.767 218.727 296.252 219.524 294.228 218.42C294.111 218.359 294.001 218.285 293.897 218.218C291.247 223.149 288.156 227.804 284.685 232.127C282.777 234.495 280.759 236.764 278.631 238.929C281.655 241.615 283.323 245.154 283.121 248.386C283.114 248.459 283.108 248.539 283.102 248.619C283.01 250.465 282.311 252.262 281.127 253.721C277.748 257.892 272.786 261.345 268.444 263.847C263.887 266.466 258.17 263.369 257.735 258.045C257.649 257.003 257.575 255.923 257.539 254.807C254.263 256.585 250.853 258.156 247.339 259.511C247.314 265.576 246.842 270.771 245.523 273.316L263.157 282.884C267.677 274.163 302.747 256.408 302.747 256.408C302.747 256.408 368.508 236.653 380.284 185.787C392.054 134.914 341.332 110.21 341.332 110.21ZM354.985 156.471C357.009 157.575 357.775 160.145 356.702 162.218C355.629 164.291 353.114 165.088 351.09 163.99C349.054 162.892 348.287 160.316 349.36 158.243C350.44 156.158 352.948 155.367 354.985 156.471ZM315.768 176.875C317.792 177.979 318.571 180.555 317.492 182.628C316.418 184.713 313.898 185.492 311.874 184.388C309.85 183.297 309.071 180.727 310.15 178.642C311.217 176.575 313.738 175.778 315.768 176.875ZM312.53 156.974C310.506 155.87 309.727 153.3 310.8 151.233C311.874 149.148 314.394 148.363 316.424 149.461C318.455 150.559 319.227 153.129 318.148 155.214C317.075 157.287 314.56 158.072 312.53 156.974ZM317.933 173.791C315.909 172.693 315.13 170.117 316.21 168.044C317.277 165.971 319.804 165.174 321.828 166.278C323.858 167.382 324.631 169.951 323.551 172.024C322.478 174.103 319.97 174.894 317.933 173.791ZM321.871 157.225C322.944 155.146 325.465 154.367 327.489 155.459C329.519 156.563 330.292 159.133 329.212 161.212C328.145 163.285 325.624 164.07 323.6 162.972C321.57 161.874 320.791 159.304 321.871 157.225ZM321.092 184.578C322.165 182.505 324.692 181.714 326.716 182.818C328.74 183.91 329.519 186.486 328.44 188.565C327.36 190.638 324.845 191.429 322.821 190.331C320.798 189.233 320.019 186.657 321.092 184.578ZM328.881 179.727C326.857 178.623 326.078 176.054 327.152 173.981C328.231 171.902 330.752 171.11 332.776 172.208C334.812 173.312 335.579 175.888 334.505 177.955C333.432 180.04 330.917 180.831 328.881 179.727ZM334.548 168.903C332.524 167.811 331.745 165.235 332.819 163.162C333.892 161.083 336.413 160.298 338.437 161.396C340.473 162.5 341.246 165.069 340.166 167.149C339.093 169.215 336.578 170.006 334.548 168.903ZM338.063 179.887C339.136 177.814 341.657 177.023 343.681 178.12C345.717 179.224 346.484 181.8 345.41 183.867C344.331 185.952 341.822 186.743 339.786 185.639C337.762 184.535 336.989 181.966 338.063 179.887ZM345.46 174.821C343.423 173.723 342.65 171.147 343.724 169.074C344.803 167.001 347.318 166.21 349.348 167.314C351.378 168.412 352.145 170.975 351.071 173.061C349.998 175.134 347.49 175.919 345.46 174.821ZM344.515 141.721C345.588 139.642 348.109 138.863 350.139 139.955C352.163 141.059 352.942 143.629 351.863 145.708C350.789 147.781 348.269 148.572 346.245 147.474C344.214 146.376 343.442 143.8 344.515 141.721ZM344.073 150.559C346.103 151.663 346.882 154.233 345.803 156.312C344.73 158.385 342.209 159.176 340.179 158.078C338.149 156.974 337.382 154.398 338.455 152.331C339.529 150.246 342.043 149.455 344.073 150.559ZM333.567 135.791C334.646 133.718 337.155 132.92 339.185 134.031C341.215 135.122 341.994 137.692 340.921 139.777C339.841 141.844 337.321 142.641 335.29 141.543C333.26 140.439 332.494 137.864 333.567 135.791ZM333.119 144.622C335.149 145.726 335.922 148.296 334.843 150.375C333.776 152.448 331.261 153.245 329.225 152.141C327.201 151.037 326.422 148.468 327.501 146.395C328.575 144.309 331.095 143.524 333.119 144.622ZM322.503 129.793C323.576 127.714 326.091 126.922 328.121 128.026C330.145 129.118 330.924 131.694 329.844 133.773C328.777 135.846 326.25 136.637 324.226 135.539C322.196 134.435 321.423 131.866 322.503 129.793ZM322.055 138.624C324.085 139.728 324.858 142.298 323.778 144.377C322.705 146.444 320.19 147.241 318.16 146.137C316.13 145.045 315.363 142.469 316.437 140.397C317.51 138.311 320.025 137.526 322.055 138.624ZM311.548 123.862C312.628 121.777 315.136 120.986 317.173 122.09C319.203 123.187 319.976 125.757 318.902 127.842C317.823 129.915 315.308 130.7 313.278 129.609C311.242 128.505 310.475 125.929 311.548 123.862ZM307.206 140.206C305.182 139.109 304.409 136.533 305.483 134.454C306.562 132.375 309.077 131.596 311.101 132.687C313.137 133.791 313.91 136.361 312.836 138.44C311.757 140.513 309.242 141.31 307.206 140.206ZM306.869 167.786C304.839 166.695 304.06 164.125 305.139 162.04C306.212 159.967 308.733 159.176 310.763 160.273C312.794 161.377 313.56 163.953 312.487 166.026C311.414 168.105 308.899 168.896 306.869 167.786ZM304.52 189.485C305.587 187.412 308.108 186.615 310.138 187.718C312.162 188.816 312.935 191.386 311.855 193.459C310.782 195.544 308.267 196.335 306.243 195.231C304.213 194.127 303.44 191.558 304.52 189.485ZM310.794 222.59C309.721 224.663 307.2 225.455 305.176 224.357C303.14 223.253 302.373 220.677 303.446 218.61C304.526 216.525 307.034 215.734 309.071 216.838C311.095 217.942 311.867 220.505 310.794 222.59ZM316.424 211.754C315.351 213.82 312.83 214.618 310.806 213.514C308.776 212.422 308.003 209.84 309.077 207.767C310.15 205.7 312.671 204.903 314.701 206.001C316.725 207.099 317.498 209.681 316.424 211.754ZM317.191 201.168C315.161 200.064 314.388 197.494 315.462 195.421C316.535 193.342 319.056 192.545 321.086 193.649C323.11 194.753 323.889 197.323 322.809 199.396C321.73 201.481 319.215 202.266 317.191 201.168ZM327.336 217.666C326.256 219.739 323.735 220.53 321.711 219.432C319.681 218.334 318.908 215.752 319.988 213.679C321.061 211.612 323.576 210.815 325.606 211.919C327.63 213.011 328.409 215.593 327.336 217.666ZM333.72 205.308C332.641 207.393 330.12 208.178 328.096 207.08C326.06 205.976 325.287 203.407 326.373 201.328C327.446 199.255 329.955 198.457 331.991 199.561C334.015 200.665 334.794 203.241 333.72 205.308ZM333.727 196.243C331.696 195.139 330.917 192.57 332.003 190.491C333.076 188.418 335.591 187.626 337.621 188.73C339.651 189.822 340.424 192.398 339.351 194.477C338.271 196.556 335.757 197.341 333.727 196.243ZM344.319 211.441C343.245 213.514 340.731 214.305 338.701 213.201C336.67 212.103 335.898 209.533 336.977 207.454C338.05 205.381 340.565 204.59 342.595 205.688C344.625 206.786 345.398 209.368 344.319 211.441ZM349.949 200.598C348.876 202.683 346.361 203.468 344.331 202.37C342.307 201.266 341.528 198.696 342.608 196.617C343.681 194.544 346.202 193.753 348.226 194.851C350.256 195.955 351.029 198.525 349.949 200.598ZM356.015 190C354.942 192.073 352.427 192.864 350.397 191.76C348.367 190.668 347.594 188.099 348.673 186.014C349.747 183.941 352.261 183.149 354.291 184.247C356.322 185.351 357.088 187.927 356.015 190ZM361.676 179.175C360.603 181.26 358.088 182.045 356.058 180.948C354.034 179.844 353.255 177.274 354.334 175.195C355.402 173.122 357.922 172.337 359.953 173.435C361.983 174.533 362.755 177.102 361.676 179.175Z" fill="#3F5CA2"/>
<path d="M232.957 350.726C230.105 352.64 228.988 353.167 218.408 347.439C208.288 341.956 207.773 340.454 207.577 336.97C207.16 329.531 217.286 327.814 217.286 327.814L243.365 277.48L260.998 287.042L234.919 337.375C234.919 337.375 238.317 347.139 232.957 350.726Z" fill="#3F5CA2"/>
</g>
<defs>
<clipPath id="clip0_121_94">
<rect width="362" height="281" fill="white" transform="translate(27 78)"/>
</clipPath>
</defs>
</svg>
