<svg width="76" height="76" viewBox="0 0 76 76" fill="none" xmlns="http://www.w3.org/2000/svg">
<rect x="1" width="75" height="75" rx="6" fill="#C2F1FA"/>
<path d="M61.706 26.1826C59.5108 34.7426 55.0557 42.5556 48.8066 48.8043C42.5575 55.053 34.744 59.5078 26.1834 61.7028C19.5964 63.3794 14 57.7158 14 50.9169V47.8405C14 46.1423 15.3814 44.7795 17.0735 44.6103C19.8745 44.3318 22.6239 43.6704 25.245 42.6444L29.9184 47.3206C37.5326 43.6707 43.6727 37.5311 47.3228 29.9173L42.6463 25.2412C43.6734 22.6204 44.336 19.8712 44.6154 17.0703C44.7815 15.3782 46.1445 14 47.8427 14H50.9194C57.7125 14 63.3796 19.596 61.7029 26.1826" stroke="#283618" stroke-width="6.5" stroke-linecap="round" stroke-linejoin="round"/>
</svg>
